<svg width="550" height="550" viewBox="0 0 550 550" fill="none" xmlns="http://www.w3.org/2000/svg">
<g clip-path="url(#clip0_352_260)">
<path d="M0 158.4C0 102.955 0 75.2322 10.7904 54.0549C20.2818 35.4269 35.4269 20.2818 54.0549 10.7904C75.2322 0 102.955 0 158.4 0H391.6C447.045 0 474.768 0 495.945 10.7904C514.573 20.2818 529.718 35.4269 539.21 54.0549C550 75.2322 550 102.955 550 158.4V391.6C550 447.045 550 474.768 539.21 495.945C529.718 514.573 514.573 529.718 495.945 539.21C474.768 550 447.045 550 391.6 550H158.4C102.955 550 75.2322 550 54.0549 539.21C35.4269 529.718 20.2818 514.573 10.7904 495.945C0 474.768 0 447.045 0 391.6V158.4Z" fill="#0E7E82"/>
<path fill-rule="evenodd" clip-rule="evenodd" d="M286.241 274.375L216.88 126.052C212.788 117.299 219.459 110.084 225.871 110H327.343C335.692 110 342.626 115.781 345.837 122.202L416.875 274.374L286.241 274.375ZM261.836 274.375H173.85C153.941 274.375 143.353 252.937 150.648 237.744L195.3 141.983C196.226 139.999 198.974 139.977 199.91 141.931L261.836 274.375ZM295.874 294.922L347.895 406.646C351.802 414.218 358.813 418.204 367.162 418.204H467.992C475.056 418.204 480.215 410.282 477.1 403.543L426.433 294.922H295.874ZM109.251 326.186L73.0204 404.078C68.525 414.351 79.4428 423.34 87.7914 417.561L263.12 294.922H160.363C137.885 294.922 119.21 307.119 109.251 326.186Z" fill="#F8F8F8"/>
</g>
<defs>
<clipPath id="clip0_352_260">
<rect width="550" height="550" fill="white"/>
</clipPath>
</defs>
</svg>
